<?xml version="1.0" encoding="UTF-8" standalone="no"?>
<!-- Created with Inkscape (http://www.inkscape.org/) -->

<svg
   xmlns:dc="http://purl.org/dc/elements/1.1/"
   xmlns:cc="http://creativecommons.org/ns#"
   xmlns:rdf="http://www.w3.org/1999/02/22-rdf-syntax-ns#"
   xmlns:svg="http://www.w3.org/2000/svg"
   xmlns="http://www.w3.org/2000/svg"
   xmlns:sodipodi="http://sodipodi.sourceforge.net/DTD/sodipodi-0.dtd"
   xmlns:inkscape="http://www.inkscape.org/namespaces/inkscape"
   width="169.27808mm"
   height="169.27808mm"
   viewBox="0 0 169.27808 169.27808"
   version="1.1"
   id="svg8"
   sodipodi:docname="EF-black.svg"
   inkscape:version="0.92.4 5da689c313, 2019-01-14">
  <defs
     id="defs2" />
  <sodipodi:namedview
     id="base"
     pagecolor="#ffffff"
     bordercolor="#666666"
     borderopacity="1.0"
     inkscape:pageopacity="0.0"
     inkscape:pageshadow="2"
     inkscape:zoom="0.7071068"
     inkscape:cx="229.18181"
     inkscape:cy="319.5627"
     inkscape:document-units="mm"
     inkscape:current-layer="layer1"
     showgrid="false"
     inkscape:window-width="1366"
     inkscape:window-height="703"
     inkscape:window-x="0"
     inkscape:window-y="0"
     inkscape:window-maximized="1" />
  <metadata
     id="metadata5">
    <rdf:RDF>
      <cc:Work
         rdf:about="">
        <dc:format>image/svg+xml</dc:format>
        <dc:type
           rdf:resource="http://purl.org/dc/dcmitype/StillImage" />
        <dc:title />
      </cc:Work>
    </rdf:RDF>
  </metadata>
  <g
     inkscape:label="Layer 1"
     inkscape:groupmode="layer"
     id="layer1"
     transform="translate(-62.648937,-85.331919)">
    <g
       id="g956"
       transform="matrix(0.99456829,0,0,0.99456829,50.469861,0.92304869)">
      <path
         sodipodi:nodetypes="cc"
         inkscape:connector-curvature="0"
         id="path4526-7"
         d="m 103.0149,122.01634 -23.569188,9.36493"
         style="fill:#000000;fill-opacity:1;stroke:#000000;stroke-width:0.12546332px;stroke-linecap:butt;stroke-linejoin:miter;stroke-opacity:1" />
      <path
         sodipodi:nodetypes="cc"
         inkscape:connector-curvature="0"
         id="path4526-7-3"
         d="M 103.13273,135.24622 78.836621,144.9"
         style="fill:#000000;fill-opacity:1;stroke:#000000;stroke-width:0.12933296px;stroke-linecap:butt;stroke-linejoin:miter;stroke-opacity:1" />
      <path
         inkscape:connector-curvature="0"
         id="path4605"
         d="m 103.07548,135.30299 0.005,-13.3451"
         style="fill:#000000;fill-opacity:1;stroke:#000000;stroke-width:0.17780243px;stroke-linecap:butt;stroke-linejoin:miter;stroke-opacity:1" />
      <path
         sodipodi:nodetypes="cc"
         inkscape:connector-curvature="0"
         id="path4526-7-5-5"
         d="M 112.0649,144.97829 78.776965,158.20488"
         style="fill:#000000;fill-opacity:1;stroke:#000000;stroke-width:0.17719835px;stroke-linecap:butt;stroke-linejoin:miter;stroke-opacity:1" />
      <path
         inkscape:connector-curvature="0"
         id="path4641"
         d="M 79.55998,131.33534 V 117.56192"
         style="fill:#000000;fill-opacity:1;stroke:#000000;stroke-width:0.26458332px;stroke-linecap:butt;stroke-linejoin:miter;stroke-opacity:1" />
      <path
         inkscape:connector-curvature="0"
         id="path4647"
         d="M 78.876188,158.1981 V 144.82675"
         style="fill:#000000;fill-opacity:1;stroke:#000000;stroke-width:0.26523936px;stroke-linecap:butt;stroke-linejoin:miter;stroke-opacity:1" />
      <path
         sodipodi:nodetypes="cc"
         inkscape:connector-curvature="0"
         id="path4526-6-9-0"
         d="m 114.16571,201.22344 -20.776638,8.25539"
         style="fill:#000000;fill-opacity:1;stroke:#000000;stroke-width:0.11059809px;stroke-linecap:butt;stroke-linejoin:miter;stroke-opacity:1" />
      <path
         sodipodi:nodetypes="cc"
         inkscape:connector-curvature="0"
         id="path4526-6-9-0-9"
         d="m 114.14447,215.26942 -20.72334,8.2342"
         style="fill:#000000;fill-opacity:1;stroke:#000000;stroke-width:0.11031438px;stroke-linecap:butt;stroke-linejoin:miter;stroke-opacity:1" />
      <path
         inkscape:connector-curvature="0"
         id="path4605-3"
         d="m 114.12968,215.30632 0.005,-14.02049"
         style="fill:#000000;fill-opacity:1;stroke:#000000;stroke-width:0.18680093px;stroke-linecap:butt;stroke-linejoin:miter;stroke-opacity:1" />
      <path
         inkscape:connector-curvature="0"
         id="path4637-7-0"
         d="m 93.409361,248.52884 -0.02289,-58.11941"
         style="fill:#000000;fill-opacity:1;stroke:#000000;stroke-width:0.11213692px;stroke-linecap:butt;stroke-linejoin:miter;stroke-opacity:1" />
      <path
         sodipodi:nodetypes="cc"
         inkscape:connector-curvature="0"
         id="path4526-6-9-0-9-6"
         d="m 93.457649,248.50158 -14.617011,5.80791"
         style="fill:#000000;fill-opacity:1;stroke:#000000;stroke-width:0.0778092px;stroke-linecap:butt;stroke-linejoin:miter;stroke-opacity:1" />
      <path
         transform="scale(0.26458333)"
         inkscape:connector-curvature="0"
         id="path4820"
         d="m 237.35507,542.9469 0.25331,-147.28479 91.40847,-36.32348 c 50.27465,-19.97791 91.79276,-36.32347 92.26247,-36.32347 0.4697,0 0.73589,16.30378 0.59153,36.23063 l -0.26247,36.23064 -60.5,24.0632 -60.5,24.06319 -0.26633,26.70617 c -0.14648,14.68839 -0.0715,26.70617 0.16656,26.70617 0.23809,0 19.25794,-7.47088 42.26633,-16.60196 23.00839,-9.13108 42.84594,-16.99495 44.08344,-17.47525 l 2.25,-0.87329 v 24.315 24.315 l -46,18.25553 -46,18.25553 v 25.87997 25.87997 l 2.25,-0.85963 c 1.2375,-0.47279 28.575,-11.31176 60.75,-24.08661 32.175,-12.77484 59.51848,-23.61801 60.76328,-24.09592 l 2.26328,-0.86893 -0.26328,33.57734 -0.26328,33.57734 -16,6.43152 c -11.39393,4.58002 -150.99695,60.24902 -168.25331,67.09378 -1.0017,0.39733 -1.20246,-29.07301 -1,-146.78765 z"
         style="fill:#000000;fill-opacity:1;stroke:#000000;stroke-width:1.00157475;stroke-miterlimit:4;stroke-dasharray:none;stroke-opacity:1" />
      <path
         sodipodi:nodetypes="ccsscscccccsccc"
         inkscape:connector-curvature="0"
         id="path4822"
         d="m 79.000277,214.93355 0.07131,-39.47626 14.355744,-5.49224 c 7.895659,-3.02073 19.485809,-7.4849 25.755899,-9.92037 6.27008,-2.43547 11.62339,-4.51014 11.89625,-4.61036 0.46906,-0.17227 0.49208,0.35946 0.42223,9.76306 l -0.0739,9.94526 -18.78792,7.15283 -18.787906,7.15283 -0.0716,29.68213 0.332299,29.69515 -6.737313,2.38474 c -3.513307,1.24358 -6.808846,2.57816 -7.389925,2.79863 l -1.056506,0.40086 z"
         style="fill:#000000;fill-opacity:1;stroke:#000000;stroke-width:0.2761322;stroke-miterlimit:4;stroke-dasharray:none;stroke-opacity:1" />
      <path
         inkscape:connector-curvature="0"
         id="path4824"
         d="m 93.032716,215.99463 0.08987,-7.74637 12.627024,-4.49397 c 6.94488,-2.47168 12.66492,-4.49513 12.71121,-4.49655 0.0462,-0.001 0.0834,3.50027 0.0826,7.7815 l -10e-4,7.78409 -12.56296,4.45882 c -6.90963,2.45237 -12.669375,4.45886 -12.799434,4.45886 -0.13006,0 -0.196031,-3.48588 -0.146609,-7.74638 z"
         style="fill:#000000;fill-opacity:1;stroke:#000000;stroke-width:0.31954584;stroke-miterlimit:4;stroke-dasharray:none;stroke-opacity:1" />
    </g>
  </g>
</svg>
